#!OML:ASF F:\VICON\USERDATA\INSTALL\rory3\rory3.ASF
:FULLY-SPECIFIED
:DEGREES
443
root 1.22517 15.4532 -5.81478 -2.58866 -19.4678 0.693383
lowerback -4.16991 5.46567 6.26111
upperback 0.878924 7.08982 -3.37946
thorax 4.45034 3.74012 -6.40474
lowerneck -9.54026 -0.257388 -5.30794
upperneck 44.2104 4.23277 -6.98368
head 18.4582 -0.184777 -1.66248
rclavicle 4.10242e-014 1.27222e-014
rhumerus 49.8289 -2.90906 -66.171
rradius 129.848
rwrist -59.0335
rhand -4.00133 -45.5749
rfingers 7.12502
rthumb 21.7527 -74.3726
lclavicle 4.10242e-014 1.27222e-014
lhumerus -12.6551 -38.3748 69.3893
lradius 29.2171
lwrist 18.0976
lhand -14.2063 -25.0531
lfingers 7.12502
lthumb 11.9302 4.58692
rfemur -23.0359 -21.5704 25.5097
rtibia 67.2707
rfoot -44.0475 -34.5561
rtoes 5.24028
lfemur -27.9836 -14.9876 4.80519
ltibia 13.8229
lfoot 14.2483 5.18056
ltoes -17.4114
444
root 1.21915 15.4505 -5.82212 -2.60981 -19.2807 0.916618
lowerback -4.20603 5.48096 6.0022
upperback 0.816813 7.12549 -3.46881
thorax 4.39017 3.749 -6.3502
lowerneck -9.78245 -0.33131 -5.34543
upperneck 44.6381 4.15274 -6.8687
head 18.793 -0.228204 -1.64079
rclavicle 8.74653e-014 -5.00937e-014
rhumerus 49.8395 -2.73392 -66.4318
rradius 129.965
rwrist -59.0147
rhand -4.5455 -45.3533
rfingers 7.12502
rthumb 21.23 -74.2107
lclavicle 8.74653e-014 -5.00937e-014
lhumerus -13.1039 -38.3856 69.6913
lradius 29.3747
lwrist 18.1639
lhand -14.1562 -25.5188
lfingers 7.12502
lthumb 11.9785 4.11848
rfemur -23.1653 -21.725 25.3192
rtibia 67.3563
rfoot -43.8563 -34.7421
rtoes 4.87854
lfemur -28.0619 -14.9657 4.53002
ltibia 13.7066
lfoot 14.3196 4.91246
ltoes -17.8585
445
root 1.21175 15.4486 -5.82542 -2.6328 -19.1656 0.985415
lowerback -4.26203 5.4869 5.90823
upperback 0.75487 7.13655 -3.49936
thorax 4.35049 3.74941 -6.32664
lowerneck -9.7428 -0.355577 -5.49118
upperneck 44.8196 4.11628 -6.73516
head 18.892 -0.256154 -1.566
rclavicle -3.47376e-014 -1.59028e-015
rhumerus 49.8214 -2.53313 -66.7607
rradius 130.148
rwrist -59.1351
rhand -4.77455 -45.1526
rfingers 7.12502
rthumb 21.01 -74.0345
lclavicle -3.47376e-014 -1.59028e-015
lhumerus -13.6215 -38.289 70.0021
lradius 29.5814
lwrist 18.1851
lhand -14.0654 -25.6345
lfingers 7.12502
lthumb 12.066 3.99765
rfemur -23.1675 -21.829 25.2581
rtibia 67.3995
rfoot -43.6079 -35.0062
rtoes 4.63105
lfemur -28.0728 -14.996 4.43686
ltibia 13.6474
lfoot 14.3117 4.884
ltoes -17.7089
446
root 1.20448 15.4436 -5.83281 -2.68856 -19.12 0.758641
lowerback -4.18427 5.51492 6.12713
upperback 0.712608 7.16416 -3.44254
thorax 4.28696 3.76464 -6.39514
lowerneck -9.424 -0.361485 -5.60635
upperneck 44.7945 4.1102 -6.74253
head 18.7868 -0.271766 -1.54621
rclavicle -1.15047e-014 -2.54444e-014
rhumerus 49.7477 -2.36989 -67.0603
rradius 130.275
rwrist -59.5126
rhand -4.4191 -45.5018
rfingers 7.12502
rthumb 21.3515 -74.3455
lclavicle -1.15047e-014 -2.54444e-014
lhumerus -14.1632 -38.0926 70.3435
lradius 29.8108
lwrist 17.9654
lhand -14.006 -25.5786
lfingers 7.12502
lthumb 12.1233 4.05012
rfemur -23.0016 -21.8221 25.4889
rtibia 67.4013
rfoot -44.0042 -34.6459
rtoes 5.38551
lfemur -28.034 -15.2567 4.75537
ltibia 13.7033
lfoot 14.3098 5.09944
ltoes -17.5019
447
root 1.19754 15.4382 -5.84204 -2.78414 -19.0935 0.528227
lowerback -4.07039 5.57576 6.38042
upperback 0.741212 7.2374 -3.40169
thorax 4.29204 3.80824 -6.49398
lowerneck -9.33327 -0.423008 -5.63543
upperneck 44.8378 4.03858 -6.78194
head 18.7906 -0.30931 -1.5744
rclavicle -5.69021e-015 -6.36111e-015
rhumerus 49.7447 -2.34587 -67.3005
rradius 130.28
rwrist -60.0802
rhand -3.36493 -45.3419
rfingers 7.12502
rthumb 22.3637 -74.0675
lclavicle -5.69021e-015 -6.36111e-015
lhumerus -14.4338 -38.013 70.5648
lradius 29.9045
lwrist 17.7995
lhand -13.6715 -25.5117
lfingers 7.12502
lthumb 12.4459 4.0977
rfemur -22.8217 -21.812 25.7413
rtibia 67.3715
rfoot -44.3219 -34.3985
rtoes 5.87768
lfemur -27.9989 -15.3907 5.02458
ltibia 13.8617
lfoot 14.2833 5.0829
ltoes -17.5913
448
root 1.19025 15.4353 -5.84707 -2.84174 -19.0777 0.454098
lowerback -4.02719 5.6645 6.4745
upperback 0.759355 7.354 -3.39902
thorax 4.31829 3.87031 -6.5329
lowerneck -9.4477 -0.497673 -5.61029
upperneck 45.0112 3.95889 -6.79924
head 18.9362 -0.345842 -1.61222
rclavicle 2.61153e-014 -7.15625e-015
rhumerus 49.6903 -2.3281 -67.4583
rradius 130.342
rwrist -60.2849
rhand -2.64912 -45.2676
rfingers 7.12502
rthumb 23.0507 -73.9091
lclavicle 2.61153e-014 -7.15625e-015
lhumerus -14.6077 -38.3655 70.7619
lradius 29.9944
lwrist 18.1256
lhand -13.4917 -25.5924
lfingers 7.12502
lthumb 12.6192 4.00641
rfemur -22.7567 -21.8488 25.8507
rtibia 67.3467
rfoot -44.3117 -34.5829
rtoes 5.88287
lfemur -28.0168 -15.3768 5.08586
ltibia 14.0324
lfoot 14.2315 5.10789
ltoes -17.3744
449
root 1.18503 15.4278 -5.85614 -2.81372 -19.0556 0.276735
lowerback -3.90518 5.73425 6.62091
upperback 0.709441 7.44509 -3.34685
thorax 4.22443 3.91402 -6.56338
lowerneck -9.34731 -0.514932 -5.59784
upperneck 45.0808 3.96979 -6.88318
head 18.9603 -0.348703 -1.65688
rclavicle 9.48948e-014 -1.82882e-014
rhumerus 49.5942 -2.09547 -67.5927
rradius 130.458
rwrist -59.8235
rhand -3.05188 -46.2893
rfingers 7.12502
rthumb 22.6642 -74.9785
lclavicle 9.48948e-014 -1.82882e-014
lhumerus -14.984 -38.6385 71.0817
lradius 30.2165
lwrist 18.4117
lhand -13.8517 -25.9216
lfingers 7.12502
lthumb 12.2721 3.69833
rfemur -22.7928 -21.8388 26.1008
rtibia 67.3767
rfoot -44.4355 -34.6806
rtoes 6.13827
lfemur -28.0819 -15.2617 5.25597
ltibia 14.1191
lfoot 14.2076 5.05067
ltoes -17.2652
